<svg viewBox="0 0 39 115" xml:space="preserve" xmlns="http://www.w3.org/2000/svg"><path d="m26.102 91.63 3.372-13.589 7.465-30.088c1.33-5.36-1.938-10.783-7.298-12.113l-.971-.241a10.063 10.063 0 0 0-1.949-.283l.008-.199-.437.197c-3.072-.011-7.561 2.97-7.561 2.97-8.72 6.079-20.654 14.141-18.886 17.981 2.678 5.816 15.748-9.487 12.618 3.131L9.091 72.984l-7.465 30.088c-1.33 5.361 1.504 10.676 6.864 12.006l.971.241a9.983 9.983 0 0 0 1.95.282l-.009.199s.162-.071.438-.197c3.072.012 7.561-2.97 7.561-2.97 8.72-6.079 20.871-14.087 19.103-17.928-2.68-5.815-15.532 9.542-12.402-3.075z" fill="#2dad37" class="fill-000000"></path><circle cx="24.727" cy="15.217" r="14" fill="#2dad37" class="fill-000000"></circle></svg>